# xmcd
#
# Track frame offsets:
#	182
#	12085
#	24725
#	37720
#	50945
#	62130
#	77430
#	86695
#	99817
#	110400
#	120210
#	130517
#	141265
#	151452
#	162940
#	175135
#	186180
#
# Disc length: 2647 seconds
#
# Revision: 1
# Processed by: cddbd v1.5.2PL0 Copyright (c) Steve Scherf et al.
# Submitted via: EasyCDDAExtractor 10.0.5.1
#
DISCID=cc0a5511
DTITLE=Jim Reeves - 16 Greatest Hits
DYEAR=1900
DGENRE=Country
TTITLE0=Welcome To My World
TTITLE1=Bimbo
TTITLE2=Four Walls
TTITLE3=Danny Boy
TTITLE4=Just Walking In The Rain
TTITLE5=The Blizzard
TTITLE6=I Won't Forget You
TTITLE7=The White Cliffs Of Dover
TTITLE8=Your The Only Good Thing
TTITLE9=Snowflake
TTITLE10=Am I Loosing You
TTITLE11=He'll Have To Go
TTITLE12=I'm Gettin' Better
TTITLE13=You Belong To Me
TTITLE14=Blue Skies
TTITLE15=Moonlight And Roses
TTITLE16=I Cant Stop Loving You
EXTD=Mijn copy
EXTT0=Mijn copy
EXTT1=Mijn copy
EXTT2=Mijn copy
EXTT3=Mijn copy
EXTT4=Mijn copy
EXTT5=Mijn copy
EXTT6=Mijn copy
EXTT7=Mijn copy
EXTT8=Mijn copy
EXTT9=Mijn copy
EXTT10=Mijn copy
EXTT11=Mijn copy
EXTT12=Mijn copy
EXTT13=Mijn copy
EXTT14=Mijn copy
EXTT15=Mijn copy
EXTT16=Mijn copy
PLAYORDER=
